<svg width="24" height="24" viewBox="0 0 24 24" fill="none" xmlns="http://www.w3.org/2000/svg">
<path d="M4.25 3.50903C2.74011 3.50903 1.5 4.69899 1.5 6.1478V17.1827C1.5 18.6315 2.74011 19.8214 4.25 19.8214H19.75C21.2599 19.8214 22.5 18.6315 22.5 17.1827V6.1478C22.5 4.69899 21.2599 3.50903 19.75 3.50903H4.25ZM4.25 4.94836H19.75C20.4491 4.94836 21 5.47697 21 6.1478V17.1827C21 17.8535 20.4491 18.3821 19.75 18.3821H4.25C3.55089 18.3821 3 17.8535 3 17.1827V6.1478C3 5.47697 3.55089 4.94836 4.25 4.94836ZM12.0068 6.86747C11.8661 6.86619 11.7278 6.90294 11.6077 6.97354C11.4877 7.04413 11.3908 7.14571 11.3281 7.26666L10.1133 9.614L7.39258 9.9907C7.25383 10.01 7.12349 10.0662 7.01636 10.153C6.90923 10.2398 6.82959 10.3536 6.78648 10.4817C6.74336 10.6097 6.7385 10.7467 6.77245 10.8772C6.80639 11.0078 6.87778 11.1266 6.97852 11.2201L8.94336 13.0446L8.47949 15.6206C8.45565 15.7528 8.4708 15.8888 8.52323 16.0132C8.57567 16.1376 8.6633 16.2454 8.77624 16.3246C8.88918 16.4037 9.02293 16.451 9.16238 16.461C9.30183 16.4711 9.44143 16.4435 9.56543 16.3815L12 15.1614L14.4346 16.3815C14.5586 16.4435 14.6982 16.4711 14.8376 16.461C14.9771 16.451 15.1108 16.4037 15.2238 16.3246C15.3367 16.2454 15.4243 16.1376 15.4768 16.0132C15.5292 15.8888 15.5444 15.7528 15.5205 15.6206L15.0566 13.0446L17.0215 11.2201C17.1222 11.1266 17.1936 11.0078 17.2276 10.8772C17.2615 10.7467 17.2566 10.6097 17.2135 10.4817C17.1704 10.3536 17.0908 10.2398 16.9836 10.153C16.8765 10.0662 16.7462 10.01 16.6074 9.9907L13.8867 9.614L12.6719 7.26666C12.6102 7.1477 12.5155 7.04745 12.3981 6.97699C12.2807 6.90654 12.1453 6.86863 12.0068 6.86747ZM12 9.2045L12.7188 10.5923C12.7728 10.6965 12.8524 10.7866 12.9507 10.8548C13.049 10.923 13.1631 10.9674 13.2832 10.984L14.8809 11.2051L13.7285 12.2753C13.6409 12.3568 13.5754 12.4577 13.5376 12.569C13.4998 12.6804 13.4909 12.7989 13.5117 12.9143L13.7842 14.4314L12.3467 13.7118C12.2396 13.6582 12.1207 13.6303 12 13.6303C11.8793 13.6303 11.7604 13.6582 11.6533 13.7118L10.2158 14.4314L10.4883 12.9143C10.5091 12.7989 10.5002 12.6804 10.4624 12.569C10.4246 12.4577 10.3591 12.3568 10.2715 12.2753L9.11914 11.2051L10.7168 10.984C10.8369 10.9674 10.951 10.923 11.0493 10.8548C11.1476 10.7866 11.2272 10.6965 11.2812 10.5923L12 9.2045Z" fill="#3C3E4D"/>
</svg>
