<svg width="21" height="22" viewBox="0 0 21 22" fill="none" xmlns="http://www.w3.org/2000/svg">
<path d="M11.3628 16.392V6.75515L15.573 10.9653C15.9095 11.3018 16.4617 11.3018 16.7981 10.9653C17.1346 10.6289 17.1346 10.0853 16.7981 9.74888L11.1126 4.06339C10.7762 3.72692 10.2326 3.72692 9.89618 4.06339L4.20206 9.74025C3.86559 10.0767 3.86559 10.6203 4.20206 10.9567C4.53853 11.2932 5.08206 11.2932 5.41853 10.9567L9.63735 6.75515V16.392C9.63735 16.8665 10.0256 17.2548 10.5001 17.2548C10.9746 17.2548 11.3628 16.8665 11.3628 16.392Z" fill="#4A506A"/>
<path fill-rule="evenodd" clip-rule="evenodd" d="M0.146973 16.1764C0.146973 15.819 0.436671 15.5293 0.794032 15.5293C1.15139 15.5293 1.44109 15.819 1.44109 16.1764V20.7059H19.5587V16.1765C19.5587 15.8191 19.8484 15.5294 20.2058 15.5294C20.5632 15.5294 20.8529 15.8191 20.8529 16.1765L20.8529 20.7059C20.8529 21.4206 20.2735 22 19.5587 22H1.44109C0.726369 22 0.146973 21.4206 0.146973 20.7059V20.7058V16.1764Z" fill="#4A506A"/>
</svg>
