<svg width="17" height="16" viewBox="0 0 17 16" fill="none" xmlns="http://www.w3.org/2000/svg">
<g clip-path="url(#clip0_618_6804)">
<path fill-rule="evenodd" clip-rule="evenodd" d="M8.49714 0.399902C6.60979 0.400882 4.78433 1.06934 3.34717 2.28576C1.91 3.50218 0.954856 5.18723 0.652513 7.0396C0.350169 8.89198 0.720342 10.7909 1.69685 12.3968C2.67336 14.0027 4.19251 15.2109 5.98268 15.8053C6.37762 15.8786 6.52639 15.6338 6.52639 15.4257C6.52639 15.2176 6.51848 14.6141 6.51585 13.9544C4.30418 14.4322 3.83684 13.0211 3.83684 13.0211C3.47613 12.1048 2.95481 11.864 2.95481 11.864C2.23338 11.3744 3.00879 11.3836 3.00879 11.3836C3.80788 11.4398 4.22784 12.1991 4.22784 12.1991C4.9361 13.4072 6.088 13.0577 6.54086 12.8535C6.61195 12.3417 6.81864 11.9935 7.04639 11.7959C5.27969 11.5969 3.42347 10.9189 3.42347 7.88989C3.41252 7.10434 3.70569 6.34466 4.24232 5.76803C4.16069 5.56907 3.88818 4.76535 4.31998 3.67366C4.31998 3.67366 4.98744 3.46161 6.50664 4.48392C7.80972 4.1296 9.18456 4.1296 10.4876 4.48392C12.0055 3.46161 12.6717 3.67366 12.6717 3.67366C13.1048 4.76273 12.8323 5.56645 12.7507 5.76803C13.289 6.34476 13.5828 7.10576 13.5708 7.89251C13.5708 10.928 11.7106 11.5969 9.9413 11.792C10.2257 12.038 10.4797 12.5184 10.4797 13.2567C10.4797 14.3144 10.4705 15.1652 10.4705 15.4257C10.4705 15.6364 10.614 15.8825 11.0169 15.8053C12.8072 15.2108 14.3265 14.0024 15.303 12.3962C16.2795 10.7901 16.6495 8.89086 16.3468 7.03831C16.0441 5.18576 15.0885 3.5007 13.6509 2.28449C12.2132 1.06828 10.3873 0.400261 8.49977 0.399902H8.49714Z" fill="#3C3E4D"/>
<path d="M3.55754 11.7502C3.54042 11.7894 3.47723 11.8012 3.42589 11.7737C3.37455 11.7462 3.33638 11.6952 3.35481 11.6546C3.37324 11.614 3.43511 11.6036 3.48645 11.631C3.53779 11.6585 3.57729 11.7109 3.55754 11.7502Z" fill="#3C3E4D"/>
<path d="M3.88002 12.1072C3.85276 12.1208 3.82156 12.1247 3.79179 12.118C3.76201 12.1113 3.73549 12.0945 3.71678 12.0705C3.66544 12.0156 3.6549 11.9396 3.69439 11.9056C3.73389 11.8716 3.80498 11.8873 3.85632 11.9423C3.90767 11.9972 3.91951 12.0732 3.88002 12.1072Z" fill="#3C3E4D"/>
<path d="M4.1936 12.5619C4.14489 12.5959 4.06195 12.5619 4.01587 12.4938C4.00313 12.4816 3.993 12.4669 3.98608 12.4507C3.97916 12.4345 3.97559 12.4171 3.97559 12.3995C3.97559 12.3819 3.97916 12.3645 3.98608 12.3483C3.993 12.3321 4.00313 12.3175 4.01587 12.3053C4.06458 12.2726 4.14753 12.3053 4.1936 12.3721C4.23968 12.4388 4.24099 12.5278 4.1936 12.5619V12.5619Z" fill="#3C3E4D"/>
<path d="M4.61848 13.0016C4.57504 13.0501 4.48684 13.037 4.41443 12.9715C4.34202 12.9061 4.32491 12.8171 4.36835 12.7699C4.41179 12.7228 4.5 12.7359 4.57503 12.8C4.65007 12.8642 4.66456 12.9545 4.61848 13.0016V13.0016Z" fill="#3C3E4D"/>
<path d="M5.21522 13.258C5.19547 13.3195 5.10595 13.347 5.01643 13.3208C4.92691 13.2946 4.86767 13.2213 4.88478 13.1585C4.9019 13.0957 4.99273 13.0669 5.08357 13.0957C5.17441 13.1245 5.23233 13.1938 5.21522 13.258Z" fill="#3C3E4D"/>
<path d="M5.86538 13.3027C5.86538 13.3669 5.79166 13.4218 5.69687 13.4231C5.60209 13.4245 5.52441 13.3721 5.52441 13.308C5.52441 13.2438 5.59813 13.1888 5.69292 13.1875C5.7877 13.1862 5.86538 13.2373 5.86538 13.3027Z" fill="#3C3E4D"/>
<path d="M6.47102 13.2017C6.48286 13.2658 6.41704 13.3326 6.32225 13.3483C6.22747 13.364 6.14453 13.326 6.13268 13.2632C6.12083 13.2004 6.18929 13.1323 6.28144 13.1153C6.3736 13.0983 6.45917 13.1376 6.47102 13.2017Z" fill="#3C3E4D"/>
</g>
<defs>
<clipPath id="clip0_618_6804">
<rect x="0.5" width="16" height="16" rx="6" fill="white"/>
</clipPath>
</defs>
</svg>
