<svg width="39" height="50" viewBox="0 0 39 50" fill="none" xmlns="http://www.w3.org/2000/svg">
<mask id="path-1-inside-1_610_4740" fill="white">
<path fill-rule="evenodd" clip-rule="evenodd" d="M27.341 0H8C3.58172 0 0 3.58172 0 8V42C0 46.4183 3.58172 50 8 50H31C35.4183 50 39 46.4183 39 42V12.2072L27.341 0Z"/>
</mask>
<path fill-rule="evenodd" clip-rule="evenodd" d="M27.341 0H8C3.58172 0 0 3.58172 0 8V42C0 46.4183 3.58172 50 8 50H31C35.4183 50 39 46.4183 39 42V12.2072L27.341 0Z" fill="white"/>
<path d="M27.341 0L28.0642 -0.690681L27.7687 -1H27.341V0ZM39 12.2072H40V11.8064L39.7232 11.5166L39 12.2072ZM8 1H27.341V-1H8V1ZM1 8C1 4.13401 4.13401 1 8 1V-1C3.02944 -1 -1 3.02944 -1 8H1ZM1 42V8H-1V42H1ZM8 49C4.13401 49 1 45.866 1 42H-1C-1 46.9706 3.02944 51 8 51V49ZM31 49H8V51H31V49ZM38 42C38 45.866 34.866 49 31 49V51C35.9706 51 40 46.9706 40 42H38ZM38 12.2072V42H40V12.2072H38ZM39.7232 11.5166L28.0642 -0.690681L26.6178 0.690681L38.2768 12.8979L39.7232 11.5166Z" fill="#FF0000" mask="url(#path-1-inside-1_610_4740)"/>
<path d="M10.672 26.818C10.996 26.818 11.28 26.776 11.524 26.692C11.772 26.608 11.978 26.49 12.142 26.338C12.31 26.182 12.436 25.998 12.52 25.786C12.604 25.57 12.646 25.332 12.646 25.072C12.646 24.548 12.482 24.136 12.154 23.836C11.83 23.536 11.336 23.386 10.672 23.386H9.34V26.818H10.672ZM10.672 22.384C11.224 22.384 11.704 22.448 12.112 22.576C12.52 22.704 12.858 22.886 13.126 23.122C13.394 23.354 13.592 23.636 13.72 23.968C13.852 24.3 13.918 24.668 13.918 25.072C13.918 25.476 13.848 25.848 13.708 26.188C13.568 26.524 13.362 26.814 13.09 27.058C12.818 27.302 12.478 27.492 12.07 27.628C11.666 27.76 11.2 27.826 10.672 27.826H9.34V31H8.062V22.384H10.672ZM22.8456 26.692C22.8456 27.336 22.7416 27.922 22.5336 28.45C22.3296 28.978 22.0396 29.432 21.6636 29.812C21.2876 30.188 20.8376 30.48 20.3136 30.688C19.7896 30.896 19.2076 31 18.5676 31H15.3276V22.384H18.5676C19.2076 22.384 19.7896 22.488 20.3136 22.696C20.8376 22.904 21.2876 23.198 21.6636 23.578C22.0396 23.954 22.3296 24.408 22.5336 24.94C22.7416 25.468 22.8456 26.052 22.8456 26.692ZM21.5376 26.692C21.5376 26.18 21.4676 25.722 21.3276 25.318C21.1876 24.91 20.9876 24.566 20.7276 24.286C20.4716 24.002 20.1596 23.786 19.7916 23.638C19.4276 23.49 19.0196 23.416 18.5676 23.416H16.6116V29.968H18.5676C19.0196 29.968 19.4276 29.894 19.7916 29.746C20.1596 29.598 20.4716 29.384 20.7276 29.104C20.9876 28.82 21.1876 28.476 21.3276 28.072C21.4676 27.668 21.5376 27.208 21.5376 26.692ZM25.7405 23.422V26.308H29.1965V27.346H25.7405V31H24.4565V22.384H29.7965V23.422H25.7405Z" fill="#FF0000"/>
</svg>
